<svg width="101" height="68" viewBox="0 0 101 68" fill="none" xmlns="http://www.w3.org/2000/svg">
<path d="M51.2692 1.34989L51.0514 0.963538L50.8336 1.34989L43.5403 14.2886L27.9427 5.04522L27.4648 4.76204L27.5697 5.3075L30.1812 18.8883L9.94338 15.5089L9.13555 15.374L9.73034 15.937L21.5305 27.1072L2.31868 30.3743L1.37521 30.5347L2.27661 30.8562L19.6851 37.0651L4.17528 46.0491L3.36416 46.519L4.30152 46.5154L25.1027 46.4376L17.6793 59.1648L17.3366 59.7524L17.9782 59.5266L36.4496 53.0267L38.8393 66.689L38.9207 67.1541L39.2597 66.8254L51.0514 55.3895L62.8431 66.8254L63.1821 67.1541L63.2634 66.689L65.6532 53.0267L84.1246 59.5266L84.7662 59.7524L84.4235 59.1648L77.0001 46.4376L97.8013 46.5154L98.7387 46.519L97.9275 46.0491L82.3622 37.0329L98.8593 29.2044L99.6848 28.8126L98.7748 28.7296L80.6105 27.0711L92.3725 15.937L92.9673 15.374L92.1594 15.5089L71.9216 18.8883L74.5331 5.3075L74.638 4.76204L74.1601 5.04522L58.5625 14.2886L51.2692 1.34989Z" stroke="black" stroke-width="0.5" stroke-linecap="round"/>
</svg>
